<?xml version="1.0" encoding="UTF-8" standalone="no"?>
<svg
   width="1024"
   height="1024"
   viewBox="0 0 1024 1024"
   version="1.1"
   id="svg6"
   sodipodi:docname="logo.svg"
   inkscape:version="1.2.2 (b0a8486541, 2022-12-01)"
   xmlns:inkscape="http://www.inkscape.org/namespaces/inkscape"
   xmlns:sodipodi="http://sodipodi.sourceforge.net/DTD/sodipodi-0.dtd"
   xmlns="http://www.w3.org/2000/svg"
   xmlns:svg="http://www.w3.org/2000/svg">
  <defs
     id="defs10" />
  <sodipodi:namedview
     id="namedview8"
     pagecolor="#ffffff"
     bordercolor="#000000"
     borderopacity="0.25"
     inkscape:showpageshadow="2"
     inkscape:pageopacity="0.0"
     inkscape:pagecheckerboard="0"
     inkscape:deskcolor="#d1d1d1"
     showgrid="false"
     inkscape:zoom="0.23046875"
     inkscape:cx="624.81356"
     inkscape:cy="624.81356"
     inkscape:window-width="1440"
     inkscape:window-height="872"
     inkscape:window-x="0"
     inkscape:window-y="0"
     inkscape:window-maximized="1"
     inkscape:current-layer="svg6" />
  <g
     id="g4"
     style="fill:#7f001f;fill-opacity:1"
     transform="matrix(1.0002108,0,0,1.0002108,-31.944906,6.5706333)">
    <path
       d="m 251.89,873.27 c -3.75,-0.3 -4.82,-0.83 -5.74,-2.85 -1.34,-2.93 -1.64,-729.08 -0.3,-731.2 0.64,-1.02 21.24,-1.27 103.63,-1.23 96.43,0.03 102.9,0.14 104.1,1.77 1.07,1.46 0.96,2.07 -0.65,3.8 -1.06,1.14 -1.93,2.62 -1.93,3.3 0,1.07 -1.18,3.18 -7.7,13.7 -0.66,1.07 -3.11,5.76 -5.43,10.44 -2.33,4.68 -4.51,8.73 -4.85,9 -0.34,0.27 -2.11,3.55 -3.94,7.27 -1.83,3.72 -3.69,6.99 -4.12,7.25 -0.43,0.27 -1.81,2.63 -3.07,5.24 -1.25,2.6 -5.72,10.81 -9.92,18.24 -4.2,7.43 -9.4,16.88 -11.55,21 -2.16,4.12 -4.22,7.73 -4.59,8.01 -0.36,0.28 -2.36,3.88 -4.44,8 -2.07,4.12 -4.02,7.72 -4.33,7.99 -0.31,0.28 -1.35,1.96 -2.31,3.75 -0.96,1.79 -2.54,4.71 -3.5,6.5 -0.96,1.79 -2.09,3.4 -2.5,3.58 -0.41,0.19 -0.75,1.18 -0.75,2.2 0,1.03 -0.56,2.23 -1.25,2.67 -0.69,0.44 -2.6,3.44 -4.25,6.67 -6.91,13.52 -9.91,19.16 -10.44,19.63 -0.31,0.27 -1.34,2.19 -2.29,4.25 -0.96,2.06 -2.19,3.75 -2.75,3.75 -0.56,0 -1.02,0.94 -1.02,2.1 0,1.15 -0.83,3.29 -1.83,4.75 -1.01,1.46 -4.91,8.27 -8.66,15.15 -3.75,6.88 -7.77,14.08 -8.94,16 -1.17,1.92 -2.6,4.4 -3.19,5.5 -4.09,7.71 -6.77,12.1 -7.74,12.73 -0.63,0.41 -0.79,0.75 -0.36,0.75 0.79,0.02 -2.57,6.43 -8.81,16.77 -1.9,3.16 -3.47,6.26 -3.47,6.88 0,0.62 -0.67,1.68 -1.48,2.36 -0.82,0.67 -2.51,3.32 -3.75,5.87 -1.25,2.55 -2.59,4.88 -2.98,5.18 -0.39,0.29 -2.28,3.53 -4.18,7.19 -1.91,3.66 -5.1,9.2 -7.09,12.31 -1.99,3.11 -5.25,8.88 -7.24,12.81 -1.99,3.93 -5.3,9.71 -7.36,12.84 -2.06,3.13 -4.07,6.73 -4.47,8 -0.4,1.27 -1.02,2.54 -1.38,2.81 -0.73,0.56 -12.18,20.56 -13.25,23.15 -0.37,0.9 -1.16,1.94 -1.75,2.31 -0.59,0.36 -1.07,1.29 -1.07,2.06 0,0.77 -1.8,4.23 -3.99,7.69 -2.2,3.46 -4,7.12 -4,8.14 -0.01,1.6 9.86,22.35 11.97,25.15 0.41,0.55 2.89,5.05 5.51,10 2.62,4.95 6.12,11.47 7.77,14.5 1.65,3.03 4.59,8.42 6.54,12 1.95,3.58 5.96,10.65 8.92,15.73 2.95,5.07 6.5,11.6 7.88,14.5 1.39,2.9 3.37,6.62 4.41,8.27 1.04,1.65 2.79,4.8 3.88,7 1.1,2.2 2.66,5.12 3.49,6.5 4.48,7.5 11.82,20.64 14.61,26.17 1.75,3.48 3.97,7.68 4.92,9.33 3.15,5.44 9.69,17.44 21.53,39.5 3.1,5.78 6.04,11.17 6.54,12 0.5,0.83 2.31,4.42 4.02,7.98 1.71,3.57 3.71,7.17 4.44,8 0.72,0.84 3.48,5.57 6.11,10.52 2.64,4.95 6.52,12.15 8.61,16 2.1,3.85 4.28,7.9 4.84,9 0.57,1.1 2.3,4.25 3.86,7 10.15,17.99 12.17,21.62 15.04,27 1.76,3.3 3.63,6.79 4.15,7.75 0.52,0.96 1.38,2.54 1.9,3.5 0.52,0.96 2.38,4.45 4.13,7.75 4.9,9.25 9.11,16.9 9.9,18 0.39,0.55 3.56,6.4 7.05,13 3.48,6.6 7.04,13.27 7.9,14.83 4.4,7.91 4.82,9.1 3.81,10.72 -0.92,1.46 -7.52,1.69 -65.54,2.29 -64.34,0.66 -116.56,0.63 -125.31,-0.07 z M 746,872.99 c -42.62,-0.29 -77.61,-0.63 -77.74,-0.76 -0.14,-0.12 -2.78,-4.17 -5.88,-8.98 -3.1,-4.81 -6.82,-10.14 -8.26,-11.84 -1.44,-1.7 -3.85,-5.08 -5.36,-7.5 -1.5,-2.43 -4.29,-6.44 -6.18,-8.91 -1.9,-2.47 -3.48,-4.89 -3.51,-5.36 -0.04,-0.47 -1.41,-2.54 -3.04,-4.61 C 631.96,819.9 626,810.97 626,810.02 c 0,-0.43 -0.79,-0.99 -1.76,-1.25 -0.97,-0.25 -2.66,-2.32 -3.75,-4.6 -1.1,-2.28 -2.33,-4.15 -2.74,-4.16 -0.41,0 -0.75,-0.58 -0.75,-1.27 0,-0.69 -1.01,-2.38 -2.25,-3.75 -1.24,-1.37 -3.49,-4.29 -5,-6.49 -1.52,-2.2 -4.25,-6.03 -6.08,-8.5 -5.36,-7.26 -24.4,-34.91 -26.28,-38.16 -0.61,-1.05 -2.07,-2.94 -3.25,-4.19 -1.18,-1.25 -2.14,-2.76 -2.14,-3.34 0,-0.59 -0.69,-1.64 -1.54,-2.34 -0.84,-0.7 -3.95,-4.94 -6.9,-9.42 -2.94,-4.47 -6.08,-8.73 -6.96,-9.47 -0.88,-0.73 -1.6,-1.78 -1.6,-2.33 0,-0.55 -2.25,-4.04 -5,-7.75 -2.75,-3.71 -5,-7.18 -5,-7.72 0,-0.53 -0.95,-1.83 -2.11,-2.88 -1.16,-1.04 -3.73,-4.37 -5.71,-7.4 -1.97,-3.03 -5.07,-7.27 -6.89,-9.43 -1.81,-2.16 -3.29,-4.32 -3.29,-4.79 0,-0.48 -0.43,-1.41 -0.97,-2.07 -0.53,-0.67 -2.24,-2.79 -3.81,-4.71 -1.57,-1.92 -4.94,-6.65 -7.49,-10.5 -2.55,-3.85 -5.78,-8.31 -7.18,-9.91 -1.4,-1.59 -2.55,-3.73 -2.55,-4.75 0,-1.01 -0.53,-1.73 -1.19,-1.59 -0.65,0.14 -1.97,-1.35 -2.92,-3.31 -0.95,-1.96 -2.44,-4.15 -3.31,-4.87 -0.87,-0.72 -1.59,-1.82 -1.61,-2.44 -0.01,-0.62 -1.81,-3.08 -4,-5.47 -2.18,-2.38 -3.97,-4.78 -3.97,-5.34 0,-0.55 -1.58,-2.84 -3.5,-5.09 -1.92,-2.25 -3.5,-4.68 -3.5,-5.41 0,-0.73 -0.45,-1.32 -1,-1.32 -0.55,0 -1,-0.6 -1,-1.34 0,-0.74 -1.17,-2.66 -2.6,-4.25 -1.43,-1.6 -4.55,-5.87 -6.93,-9.48 -2.39,-3.62 -5.04,-7.16 -5.9,-7.87 -0.87,-0.72 -1.57,-1.66 -1.57,-2.09 0,-0.44 -2.98,-4.77 -6.61,-9.63 -3.64,-4.86 -6.86,-9.51 -7.16,-10.34 -0.51,-1.43 -6.28,-9.03 -8.96,-11.82 -0.7,-0.73 -1.27,-1.92 -1.27,-2.64 0,-0.73 -0.64,-1.57 -1.41,-1.87 -0.78,-0.3 -2.02,-1.63 -2.75,-2.97 -2.42,-4.38 -6.54,-10.21 -8.2,-11.59 -0.9,-0.74 -1.64,-1.97 -1.64,-2.73 0,-0.76 -0.45,-1.38 -1,-1.38 -0.55,0 -1,-0.56 -1,-1.25 0,-0.69 -1.58,-3.02 -3.5,-5.18 -5.04,-5.67 -4.68,-7.85 3.01,-18.05 3.58,-4.75 7.75,-10.76 9.25,-13.36 2.83,-4.89 5.55,-8.9 13.21,-19.49 2.46,-3.39 5.16,-7.37 6,-8.84 1.33,-2.31 8.36,-12.69 20.55,-30.33 1.9,-2.75 4.02,-5.85 4.72,-6.89 0.69,-1.04 2.16,-3.07 3.26,-4.51 1.1,-1.44 2.45,-3.38 3,-4.3 0.55,-0.93 4.15,-6.23 8,-11.78 3.85,-5.55 7.46,-10.86 8.01,-11.8 1.8,-3.05 17.33,-25.54 21.91,-31.72 2.45,-3.3 4.48,-6.35 4.51,-6.77 0.04,-0.43 2.24,-3.58 4.89,-7 2.65,-3.43 5.69,-7.64 6.75,-9.37 5.04,-8.2 9.5,-14.36 10.4,-14.36 0.54,0 1.27,-1.12 1.62,-2.5 0.34,-1.38 0.98,-2.5 1.4,-2.5 0.43,0 1.04,-0.79 1.36,-1.75 0.32,-0.96 3.76,-6.25 7.66,-11.75 3.9,-5.5 7.93,-11.35 8.97,-13 1.03,-1.65 2.49,-3.67 3.24,-4.5 0.75,-0.83 3.14,-4.2 5.32,-7.5 2.18,-3.3 4.3,-6.15 4.71,-6.33 0.41,-0.19 0.75,-0.9 0.75,-1.58 0,-0.68 2.36,-4.4 5.25,-8.27 2.89,-3.87 5.92,-8.05 6.75,-9.3 0.83,-1.24 2.06,-2.85 2.75,-3.57 0.69,-0.72 1.25,-1.68 1.25,-2.14 0,-0.46 1.12,-2.04 2.5,-3.53 1.38,-1.48 2.5,-2.95 2.5,-3.26 0,-0.92 5.32,-8.82 7.75,-11.51 1.24,-1.37 2.25,-2.87 2.25,-3.33 0,-0.46 2.03,-3.46 4.5,-6.68 2.47,-3.22 4.5,-6.33 4.5,-6.92 0,-0.6 0.45,-1.08 1,-1.08 0.55,0 1,-0.48 1,-1.06 0,-0.58 1.55,-3.17 3.45,-5.75 5.76,-7.81 8.96,-12.06 10.8,-14.33 0.96,-1.19 1.77,-2.66 1.8,-3.26 0.03,-0.61 1.72,-3.44 3.75,-6.29 6.25,-8.78 17.64,-25.27 18.72,-27.09 4.19,-7.08 6.93,-10.45 9.27,-11.43 1.91,-0.8 27.44,-1.25 86.92,-1.55 l 84.21,-0.41 0.63,2.51 c 0.49,1.94 -0.36,3.98 -3.71,8.89 -5.1,7.49 -4.87,7.14 -11.52,17.33 -2.85,4.37 -8.83,13.12 -13.3,19.44 -15.68,22.21 -19.02,27.04 -19.02,27.59 0,0.3 -0.56,1.15 -1.25,1.89 -0.69,0.74 -4.17,5.68 -7.75,10.98 -3.58,5.3 -10.1,14.59 -14.5,20.65 -4.4,6.06 -9.12,12.91 -10.5,15.22 -2.09,3.53 -6.58,10.06 -9.73,14.17 -4.34,5.66 -6.27,8.52 -6.27,9.29 0,0.5 -1.01,2.02 -2.25,3.37 -1.24,1.34 -2.92,3.77 -3.75,5.39 -1.6,3.15 -1.73,3.34 -5.28,7.95 -4.6,5.96 -9.72,13.52 -9.72,14.35 0,0.46 -0.9,1.65 -2,2.65 -1.1,1 -2,2.21 -2,2.7 0,1.04 -3.36,5.94 -7.32,10.66 -1.55,1.85 -3.23,4.32 -3.73,5.5 -0.51,1.18 -2.94,4.84 -5.4,8.14 -2.46,3.3 -5.47,7.69 -6.7,9.75 -1.22,2.06 -2.59,3.75 -3.03,3.75 -0.45,0 -0.82,0.6 -0.82,1.33 0,0.72 -1.12,2.38 -2.5,3.67 -1.38,1.29 -2.5,2.95 -2.5,3.67 0,0.73 -0.35,1.33 -0.77,1.33 -0.43,0 -1.58,1.49 -2.55,3.3 -0.98,1.82 -3.11,4.86 -4.74,6.75 -1.62,1.9 -3.2,4.24 -3.51,5.2 -0.31,0.96 -0.95,1.75 -1.43,1.75 -0.48,0 -1.15,0.9 -1.5,2.01 -0.35,1.1 -3.21,5.49 -6.35,9.75 -5.31,7.19 -7.35,10.21 -11.9,17.58 -0.96,1.56 -5.46,8.04 -10,14.38 -4.53,6.35 -10.83,15.42 -14,20.16 -3.16,4.74 -6.56,9.52 -7.56,10.62 -1.68,1.86 -3.24,4.14 -13.7,20 -2.18,3.3 -6.11,9.11 -8.73,12.9 -10.69,15.51 -11.62,17.99 -8.5,22.78 6.19,9.52 18.45,27.56 23.4,34.41 3.21,4.45 5.84,8.57 5.84,9.17 0,0.59 0.34,1.22 0.76,1.41 0.9,0.39 8.69,11 16.78,22.83 7.41,10.84 13.71,19.91 19.11,27.5 2.35,3.3 6.88,9.77 10.06,14.38 3.18,4.61 6.69,9.6 7.79,11.08 1.1,1.49 3.77,5.36 5.93,8.61 2.17,3.25 4.3,6.36 4.74,6.92 3.9,4.88 8.83,11.55 8.83,11.95 0,0.27 1.37,2.42 3.04,4.77 1.67,2.36 4.21,6.08 5.65,8.27 1.44,2.19 3.27,4.62 4.05,5.41 0.79,0.78 2.63,3.23 4.1,5.43 1.46,2.2 3.33,5.01 4.16,6.25 0.83,1.24 3.17,4.66 5.2,7.59 2.04,2.94 6.79,9.85 10.56,15.37 3.76,5.52 8.73,12.42 11.04,15.34 2.31,2.92 4.2,5.63 4.2,6.03 0,0.4 0.85,1.63 1.88,2.74 1.03,1.11 3.06,3.78 4.5,5.94 3.01,4.51 5.25,7.68 11.87,16.76 2.61,3.59 4.75,6.78 4.75,7.1 0,0.32 1.09,1.81 2.43,3.32 2.47,2.78 4.49,5.59 12.36,17.24 2.42,3.58 5.31,7.5 6.44,8.71 2.07,2.24 3.66,4.73 5.94,9.29 0.69,1.38 2.62,4.12 4.29,6.09 4.9,5.8 6.3,7.61 8.17,10.59 0.97,1.55 4.38,6.49 7.57,10.98 3.19,4.48 5.8,8.43 5.8,8.77 0,0.34 2.2,3.42 4.89,6.84 9.49,12.11 12.61,19.57 8.29,19.83 -6.1,0.37 -22.25,0.34 -91.18,-0.11 z"
       fill="rgba(0,0,0,1)"
       id="path2"
       style="fill:#7f001f;fill-opacity:1" />
  </g>
</svg>
